<?xml version="1.0" standalone="no"?>
<!DOCTYPE svg PUBLIC "-//W3C//DTD SVG 20010904//EN"
 "http://www.w3.org/TR/2001/REC-SVG-20010904/DTD/svg10.dtd">
<svg version="1.0" xmlns="http://www.w3.org/2000/svg"
 width="235.000000pt" height="214.000000pt" viewBox="0 0 235.000000 214.000000"
 preserveAspectRatio="xMidYMid meet">

<g transform="translate(0.000000,214.000000) scale(0.100000,-0.100000)"
fill="#000000" stroke="none">
<path d="M1142 1503 l3 -167 80 -48 c65 -39 79 -52 77 -69 -2 -13 0 -19 7 -14
6 3 9 11 6 16 -10 15 1 11 71 -27 36 -19 68 -33 71 -30 6 6 -13 17 -187 117
l-115 66 -3 152 c-1 83 0 151 3 151 7 0 336 -188 345 -196 3 -3 6 -47 6 -97 2
-128 3 -141 10 -135 3 3 8 53 10 110 5 91 3 107 -13 125 -18 22 -345 213 -363
213 -7 0 -10 -57 -8 -167z"/>
<path d="M614 1602 c-12 -4 -34 -22 -49 -40 -25 -30 -27 -38 -22 -91 8 -77 13
-87 48 -102 23 -9 33 -9 42 0 6 6 21 11 34 11 16 0 23 6 23 19 0 12 9 21 24
25 15 4 26 14 28 29 2 18 9 22 38 22 32 0 35 3 38 33 4 39 -9 57 -59 83 -38
19 -103 24 -145 11z"/>
<path d="M1020 1568 c0 -30 11 -41 34 -32 21 8 20 23 -1 31 -10 4 -21 11 -25
17 -4 6 -8 -1 -8 -16z"/>
<path d="M970 1546 c0 -2 16 -13 36 -25 19 -12 32 -16 29 -11 -7 11 -65 43
-65 36z"/>
<path d="M2036 1504 c-9 -24 -6 -48 8 -67 13 -16 14 -13 18 27 3 45 -14 71
-26 40z"/>
<path d="M1998 1448 c-2 -13 -1 -39 2 -58 l6 -35 7 34 c10 46 9 81 -2 81 -5 0
-10 -10 -13 -22z"/>
<path d="M832 1383 c-10 -4 -9 -9 5 -20 10 -8 3 -6 -15 4 -28 15 -34 16 -42 3
-13 -21 135 -119 153 -100 9 10 9 11 0 6 -8 -4 -13 -2 -13 6 0 7 23 26 50 41
50 28 59 40 39 52 -12 8 -51 -24 -43 -36 3 -5 3 -9 0 -9 -2 0 -12 -3 -22 -7
-12 -4 -15 -3 -10 5 5 9 0 9 -20 2 -15 -6 -29 -8 -32 -5 -3 3 0 5 6 5 7 0 12
4 12 9 0 5 -9 7 -20 4 -14 -4 -20 0 -20 11 0 9 -5 16 -11 16 -5 0 -7 5 -4 10
7 11 6 11 -13 3z"/>
<path d="M1935 1298 c4 -13 12 -27 18 -33 7 -7 8 -4 3 8 -3 10 -6 25 -6 33 0
8 -5 14 -11 14 -6 0 -8 -9 -4 -22z"/>
<path d="M2067 1313 c-3 -5 -1 -28 3 -53 4 -25 8 -35 9 -23 0 12 6 23 13 25 7
3 9 14 4 31 -6 26 -20 35 -29 20z"/>
<path d="M1966 1231 c-11 -17 7 -143 21 -148 15 -6 18 -53 3 -53 -5 0 -10 -5
-10 -10 0 -7 7 -7 21 0 11 7 24 9 27 5 12 -12 15 -158 3 -151 -6 4 -11 1 -11
-6 -1 -32 -30 59 -31 96 0 22 -3 35 -6 28 -2 -6 -9 -10 -14 -6 -5 3 -9 -4 -9
-15 0 -11 -9 -25 -20 -31 -25 -13 -25 -36 0 -99 11 -28 17 -56 15 -63 -11 -30
35 -58 95 -58 23 0 39 4 36 8 -3 5 5 8 17 8 13 -1 21 4 19 12 -1 6 3 11 10 10
7 -2 13 6 14 17 1 11 7 33 14 50 8 21 8 31 1 33 -6 2 -9 8 -5 13 3 5 1 9 -3 9
-14 0 2 112 21 147 22 42 10 65 -15 32 -16 -22 -18 -22 -13 -3 3 12 -1 26 -10
33 -14 12 -16 7 -16 -47 0 -47 -4 -61 -17 -66 -26 -11 -43 15 -45 72 -2 47 -5
53 -21 48 -11 -2 -16 -2 -13 1 3 3 -2 12 -10 20 -8 9 -13 31 -12 57 1 44 -6
66 -22 66 -5 0 -11 -4 -14 -9z m24 -17 c0 -8 -5 -12 -10 -9 -6 4 -8 11 -5 16
9 14 15 11 15 -7z m112 -266 c-7 -7 -12 -8 -12 -2 0 14 12 26 19 19 2 -3 -1
-11 -7 -17z m-25 -10 c-3 -8 -6 -5 -6 6 -1 11 2 17 5 13 3 -3 4 -12 1 -19z
m15 -86 c7 -26 -9 -62 -27 -62 -10 0 -15 10 -15 33 0 51 31 72 42 29z m-32
-112 c0 -5 -4 -10 -10 -10 -5 0 -10 5 -10 10 0 6 5 10 10 10 6 0 10 -4 10 -10z"/>
<path d="M312 1180 c-33 -31 -44 -66 -36 -115 4 -32 12 -45 30 -54 27 -12 30
-28 12 -66 -9 -19 -8 -41 2 -95 11 -56 20 -77 47 -105 31 -32 46 -85 23 -85
-5 0 -10 -9 -10 -20 0 -34 66 -87 182 -145 104 -52 117 -57 167 -53 45 4 62 0
105 -23 28 -15 58 -41 67 -56 12 -21 24 -28 47 -29 18 -1 37 5 43 12 6 8 18
14 26 14 21 0 91 40 97 56 3 7 -17 -1 -44 -18 -59 -37 -92 -33 -66 7 20 31 21
41 0 21 -18 -19 -55 -21 -72 -4 -9 9 -15 8 -24 -5 -12 -16 -16 -15 -58 6 l-45
23 52 34 c51 34 52 35 32 50 -21 17 -17 32 7 23 10 -4 14 3 14 21 0 24 -2 25
-20 16 -12 -6 -42 -10 -68 -8 -40 3 -47 6 -50 26 -4 24 11 28 51 13 18 -7 33
-5 55 7 218 124 222 126 222 155 0 20 -7 31 -26 39 -22 10 -33 8 -83 -20 -68
-37 -81 -39 -81 -12 0 14 7 20 23 20 26 0 59 27 163 132 44 44 72 65 83 61 14
-4 14 -3 1 6 -8 6 -11 11 -7 11 4 0 3 9 -3 20 -9 16 -20 20 -50 18 -21 -1 -37
-5 -35 -9 5 -6 -100 -84 -128 -95 -11 -4 -27 16 -58 72 -23 43 -38 79 -32 81
6 2 18 10 28 17 17 12 17 13 1 19 -9 4 -15 3 -12 -2 3 -5 -3 -11 -14 -14 -11
-3 -20 -2 -20 1 0 4 -13 16 -27 26 -20 15 -25 16 -21 5 4 -10 0 -15 -11 -15
-60 -1 -71 -4 -71 -25 0 -19 -4 -21 -40 -16 -22 3 -40 1 -40 -4 0 -15 -37 -10
-44 6 -3 8 -15 15 -26 15 -17 0 -106 42 -145 70 -5 3 -28 8 -50 9 -29 2 -46
-4 -63 -19z"/>
<path d="M750 1190 c8 -5 20 -10 25 -10 6 0 3 5 -5 10 -8 5 -19 10 -25 10 -5
0 -3 -5 5 -10z"/>
<path d="M1352 1180 c0 -14 2 -19 5 -12 2 6 2 18 0 25 -3 6 -5 1 -5 -13z"/>
<path d="M1771 1159 c-18 -11 -31 -23 -27 -26 3 -3 14 1 23 10 31 28 66 30 96
7 32 -26 36 -19 5 10 -28 25 -54 25 -97 -1z"/>
<path d="M1608 1153 c6 -2 18 -2 25 0 6 3 1 5 -13 5 -14 0 -19 -2 -12 -5z"/>
<path d="M2143 1153 c-15 -5 -18 -43 -4 -43 9 0 26 39 19 44 -1 2 -9 1 -15 -1z"/>
<path d="M1510 1135 c0 -9 -4 -13 -10 -10 -13 8 0 -26 17 -43 7 -7 13 -20 13
-28 0 -17 16 -19 26 -3 3 6 15 9 25 6 10 -3 24 2 30 9 10 12 8 19 -10 35 -12
11 -25 18 -30 15 -5 -3 -20 4 -35 15 -22 18 -26 18 -26 4z"/>
<path d="M1671 1096 c-10 -18 -11 -32 -3 -53 l10 -28 1 37 c1 20 6 40 11 43
12 7 13 25 2 25 -5 0 -14 -11 -21 -24z"/>
<path d="M1883 1083 c-6 -21 -10 -40 -8 -42 7 -6 26 51 23 66 -2 8 -8 -3 -15
-24z"/>
<path d="M1936 1112 c-2 -4 -1 -14 5 -22 7 -12 9 -10 9 8 0 23 -5 28 -14 14z"/>
<path d="M1010 1096 c0 -2 7 -7 16 -10 8 -3 12 -2 9 4 -6 10 -25 14 -25 6z"/>
<path d="M1554 1022 c-12 -4 -20 -14 -19 -24 2 -9 -3 -22 -10 -28 -13 -11 -9
-50 5 -50 11 0 31 26 24 33 -10 10 7 47 22 47 8 0 14 7 14 15 0 16 -3 17 -36
7z"/>
<path d="M1670 996 c0 -8 4 -17 9 -20 5 -4 7 3 4 14 -6 23 -13 26 -13 6z"/>
<path d="M1791 980 c0 -33 1 -34 10 -11 6 16 6 28 -1 35 -7 7 -10 -1 -9 -24z"/>
<path d="M1839 992 c-15 -13 -20 -25 -16 -37 6 -14 10 -15 22 -5 18 15 20 34
3 24 -7 -4 -4 2 6 14 23 27 16 28 -15 4z"/>
<path d="M1201 986 c19 -17 69 -34 74 -26 4 6 3 10 -2 9 -4 -1 -21 3 -36 9
-28 12 -44 15 -36 8z"/>
<path d="M1415 873 c8 -20 15 -37 15 -40 0 -2 5 -1 11 3 8 4 7 9 -2 15 -12 7
-12 10 0 21 11 11 13 11 6 -1 -6 -10 -4 -12 4 -7 15 10 -1 32 -29 39 -18 5
-19 3 -5 -30z"/>
<path d="M1836 881 c-4 -5 7 -38 24 -73 30 -64 36 -88 22 -88 -4 0 -14 6 -22
13 -12 10 -12 9 -1 -5 7 -10 19 -18 26 -18 7 0 25 -29 40 -65 24 -56 68 -106
81 -92 3 2 -5 25 -16 51 -24 58 -24 60 -3 52 31 -12 105 5 110 25 3 11 9 19
14 19 5 0 5 -7 2 -17 -4 -11 -3 -14 6 -9 27 17 2 29 -64 30 -93 2 -115 18
-156 112 -30 68 -49 88 -63 65z"/>
<path d="M1080 866 c0 -2 7 -7 16 -10 8 -3 12 -2 9 4 -6 10 -25 14 -25 6z"/>
<path d="M1150 826 c0 -2 7 -7 16 -10 8 -3 12 -2 9 4 -6 10 -25 14 -25 6z"/>
<path d="M1721 806 c10 -9 111 -66 117 -66 10 1 -101 70 -112 70 -5 0 -7 -2
-5 -4z"/>
<path d="M1220 786 c0 -2 7 -7 16 -10 8 -3 12 -2 9 4 -6 10 -25 14 -25 6z"/>
<path d="M1632 767 c-11 -13 -73 -225 -140 -479 -33 -125 -37 -168 -13 -142 5
5 48 143 95 307 48 164 89 304 93 312 7 19 -20 20 -35 2z"/>
<path d="M1052 677 c-6 -7 -32 -23 -57 -36 -50 -25 -58 -36 -53 -74 3 -25 4
-25 71 24 51 38 67 55 67 74 0 27 -12 32 -28 12z"/>
<path d="M2156 555 c10 -8 23 -15 28 -15 6 0 1 7 -10 15 -10 8 -23 15 -28 15
-6 0 -1 -7 10 -15z"/>
<path d="M1950 516 c0 -27 7 -39 29 -55 28 -20 30 -21 60 -4 17 10 31 21 31
25 0 7 -102 68 -114 68 -3 0 -6 -15 -6 -34z"/>
<path d="M2220 521 c14 -11 39 -28 57 -36 45 -22 48 -31 10 -45 -17 -7 -27
-14 -21 -16 7 -3 26 4 44 14 l31 20 -35 21 c-20 11 -53 30 -73 42 -38 21 -38
21 -13 0z"/>
<path d="M1793 467 c3 -8 1 -19 -4 -24 -7 -7 7 -23 40 -47 28 -20 54 -36 57
-36 3 0 19 -9 35 -21 28 -20 29 -20 29 -1 0 13 -23 32 -75 62 -42 23 -74 45
-71 47 2 3 37 -14 76 -37 39 -23 74 -40 76 -37 3 3 -23 22 -58 42 -35 21 -74
44 -87 53 -21 13 -23 13 -18 -1z"/>
<path d="M1900 465 c-14 -8 -20 -14 -14 -15 5 0 19 7 30 15 24 18 16 19 -16 0z"/>
<path d="M2175 375 c-22 -14 -35 -25 -30 -25 12 0 75 38 75 45 0 7 -1 7 -45
-20z"/>
<path d="M1812 370 c0 -14 2 -19 5 -12 2 6 2 18 0 25 -3 6 -5 1 -5 -13z"/>
<path d="M1347 357 c-8 -20 -63 -24 -70 -4 -7 15 -24 -6 -33 -41 -12 -44 48
-81 76 -47 7 8 19 15 27 15 25 0 113 54 113 69 0 11 -6 10 -22 -5 -13 -11 -36
-26 -51 -34 -24 -12 -30 -12 -37 0 -5 9 -5 19 2 27 5 7 8 18 6 25 -3 8 -7 6
-11 -5z"/>
<path d="M2100 329 c0 -5 5 -7 10 -4 6 3 10 8 10 11 0 2 -4 4 -10 4 -5 0 -10
-5 -10 -11z"/>
<path d="M1035 301 c28 -15 54 -26 58 -23 9 4 -81 51 -98 51 -5 0 13 -12 40
-28z"/>
<path d="M1832 295 c0 -16 2 -22 5 -12 2 9 2 23 0 30 -3 6 -5 -1 -5 -18z"/>
<path d="M1105 271 c-3 -5 4 -13 16 -16 28 -9 33 -2 9 13 -11 6 -21 8 -25 3z"/>
<path d="M1212 220 c24 -33 27 -36 24 -17 -6 28 -19 47 -32 47 -11 0 -9 -8 8
-30z"/>
<path d="M1848 213 c7 -3 16 -2 19 1 4 3 -2 6 -13 5 -11 0 -14 -3 -6 -6z"/>
<path d="M1910 185 c0 -8 2 -15 4 -15 2 0 6 7 10 15 3 8 1 15 -4 15 -6 0 -10
-7 -10 -15z"/>
<path d="M667 179 c7 -7 15 -10 18 -7 3 3 -2 9 -12 12 -14 6 -15 5 -6 -5z"/>
<path d="M1265 177 c48 -33 75 -49 75 -44 0 6 -77 57 -87 57 -4 0 1 -6 12 -13z"/>
<path d="M598 137 c-17 -35 -11 -60 13 -55 15 3 29 18 29 31 0 5 -7 1 -16 -8
-9 -9 -19 -13 -22 -10 -3 3 -1 10 5 16 6 6 9 19 5 28 -5 14 -4 15 14 1 17 -14
18 -13 7 1 -7 9 -10 19 -6 22 3 4 2 7 -3 7 -6 0 -17 -15 -26 -33z"/>
<path d="M1767 141 c-27 -16 -54 -34 -60 -41 -13 -13 92 46 108 61 15 15 3 10
-48 -20z"/>
<path d="M1371 117 c16 -12 79 -45 79 -42 0 7 -63 45 -74 45 -5 0 -7 -1 -5 -3z"/>
<path d="M1656 75 c-11 -8 -15 -15 -9 -15 6 0 16 7 23 15 16 19 11 19 -14 0z"/>
<path d="M1593 41 c-17 -11 -39 -18 -50 -17 -10 2 -12 1 -5 -1 6 -3 12 -9 12
-14 0 -5 18 3 40 17 35 23 47 34 38 34 -2 0 -17 -9 -35 -19z"/>
</g>
</svg>
